Coordinates
version=1
nRows=29
nColumns=22
inDegrees=yes

Units are S.I. units (second, meters, Newtons, ...)
If the header above contains a line with 'inDegrees', this indicates whether rotational values are in degrees (yes) or radians (no).

endheader
time	pelvis_tilt	pelvis_list	pelvis_rotation	pelvis_tx	pelvis_ty	pelvis_tz	hip_flexion_r	hip_adduction_r	hip_rotation_r	knee_angle_r	ankle_angle_r	subtalar_angle_r	hip_flexion_l	hip_adduction_l	hip_rotation_l	knee_angle_l	ankle_angle_l	subtalar_angle_l	lumbar_extension	lumbar_bending	lumbar_rotation
      0.01000000	      1.37734293	      2.03767364	    177.85365556	      0.20732382	      0.94320973	      1.25816336	      0.98497739	      3.32243216	     -9.75872719	     -8.99064055	     10.26582515	     -2.64055164	      3.47253496	     -1.92296094	     -8.00003385	    -16.22376119	     13.17506522	     -1.91783131	     -6.69232279	     -0.66963414	     -3.63645133
      0.02000000	      1.37367875	      2.04993266	    177.84424753	      0.20731117	      0.94322286	      1.25826208	      1.00055928	      3.32494357	     -9.74370481	     -9.02656336	     10.26493009	     -2.64383405	      3.44622575	     -1.92967989	     -8.00785923	    -16.18937468	     13.16488283	     -1.89902561	     -6.68390375	     -0.64562504	     -3.65211171
      0.03000000	      1.36596946	      2.06117164	    177.82046450	      0.20727896	      0.94324115	      1.25833685	      1.02296349	      3.32468912	     -9.72706653	     -9.08477284	     10.26935757	     -2.64624602	      3.40023153	     -1.93485696	     -8.02456663	    -16.13391702	     13.16536049	     -1.87122095	     -6.67748176	     -0.62487730	     -3.65106428
      0.04000000	      1.33735864	      2.05426286	    177.76584337	      0.20720939	      0.94328922	      1.25837783	      1.02993317	      3.30211954	     -9.68774798	     -9.15787019	     10.30246372	     -2.64597746	      3.31281458	     -1.91795772	     -8.07313596	    -16.05586203	     13.16235701	     -1.79197001	     -6.69039604	     -0.62775539	     -3.58724939
      0.05000000	      1.32763163	      2.06671143	    177.74589633	      0.20712472	      0.94331022	      1.25846039	      1.04432148	      3.30397598	     -9.66497808	     -9.21113246	     10.30519975	     -2.64624334	      3.26255018	     -1.92369587	     -8.09895815	    -16.00391030	     13.16440154	     -1.77713092	     -6.68135607	     -0.59806861	     -3.62413835
      0.06000000	      1.28290093	      2.06295743	    177.68458655	      0.20698735	      0.94338583	      1.25847512	      1.03373539	      3.28479840	     -9.62161509	     -9.29184932	     10.33827623	     -2.64055923	      3.13884192	     -1.90782959	     -8.15391304	    -15.90176897	     13.16925476	     -1.71962786	     -6.70930337	     -0.59484013	     -3.56483827
      0.07000000	      1.23500055	      2.05792562	    177.63585262	      0.20681349	      0.94346917	      1.25849675	      1.00513881	      3.26693901	     -9.57305222	     -9.34886984	     10.36218228	     -2.63281603	      3.01230852	     -1.89108426	     -8.20823101	    -15.80126877	     13.15868185	     -1.67147794	     -6.74022472	     -0.58598235	     -3.55858423
      0.08000000	      1.22435224	      2.06232973	    177.61390846	      0.20664413	      0.94349453	      1.25854578	      1.01279635	      3.26173406	     -9.54917934	     -9.39830087	     10.36413174	     -2.63121177	      2.94974188	     -1.88835668	     -8.23948381	    -15.73855047	     13.16330588	     -1.66181448	     -6.73040907	     -0.55720720	     -3.60977319
      0.09000000	      1.15596838	      2.02765385	    177.54445503	      0.20639776	      0.94361677	      1.25852807	      0.96557539	      3.20925946	     -9.49806613	     -9.46663069	     10.41107455	     -2.61325800	      2.76865667	     -1.83296834	     -8.29865223	    -15.58738088	     13.14935353	     -1.61658356	     -6.78332157	     -0.58132369	     -3.56132225
      0.10000000	      1.09812670	      1.99831096	    177.50178310	      0.20613472	      0.94372811	      1.25853511	      0.90991262	      3.16629058	     -9.45510539	     -9.50102272	     10.44025828	     -2.59391148	      2.61295220	     -1.78755137	     -8.35399183	    -15.45600752	     13.11395096	     -1.57627754	     -6.82606036	     -0.59002514	     -3.58558414
      0.11000000	      1.06005584	      1.96543000	    177.46547047	      0.20587739	      0.94380896	      1.25854570	      0.87878852	      3.11947684	     -9.42887726	     -9.54062200	     10.46554610	     -2.57695470	      2.48423923	     -1.73963283	     -8.39749285	    -15.33239640	     13.09481813	     -1.54139915	     -6.84965160	     -0.59710999	     -3.61665494
      0.12000000	      1.02840404	      1.92542680	    177.43480091	      0.20562509	      0.94388126	      1.25854687	      0.84972874	      3.06653238	     -9.40717195	     -9.57163916	     10.49901976	     -2.55971588	      2.36618508	     -1.68655298	     -8.43923301	    -15.21153513	     13.06054940	     -1.50336937	     -6.86966401	     -0.60885933	     -3.66357107
      0.13000000	      1.03481882	      1.91311453	    177.42301789	      0.20543048	      0.94388763	      1.25853951	      0.85902685	      3.04967059	     -9.39399906	     -9.59450947	     10.50405273	     -2.55726201	      2.32117261	     -1.67317305	     -8.47569638	    -15.14249913	     13.06083283	     -1.49189493	     -6.85751958	     -0.58266221	     -3.74477648
      0.14000000	      1.04512005	      1.89258402	    177.41563922	      0.20527572	      0.94388350	      1.25849652	      0.87097749	      3.02708352	     -9.38466811	     -9.61189690	     10.51562667	     -2.55491769	      2.28422377	     -1.65369435	     -8.50080942	    -15.07330133	     13.05686428	     -1.47356293	     -6.84941677	     -0.56694068	     -3.83088051
      0.15000000	      1.06544147	      1.87708382	    177.42233045	      0.20522251	      0.94385219	      1.25841253	      0.89368830	      3.01565519	     -9.37892333	     -9.62081364	     10.53116406	     -2.55455328	      2.27881633	     -1.64552595	     -8.50249544	    -15.02497437	     13.04903097	     -1.44818736	     -6.85175220	     -0.54839003	     -3.92936293
      0.16000000	      1.18393660	      1.88942039	    177.51204112	      0.20535959	      0.94364249	      1.25834950	      1.03655507	      3.04383584	     -9.48541594	     -9.64240911	     10.54875045	     -2.58172214	      2.45684383	     -1.68127379	     -8.36886256	    -15.08107219	     13.05406467	     -1.27800824	     -6.76800051	     -0.49757072	     -4.12373044
      0.17000000	      1.35881202	      1.94685244	    177.60566567	      0.20567068	      0.94332074	      1.25817549	      1.24236860	      3.13677540	     -9.53643675	     -9.65069942	     10.52508286	     -2.62797316	      2.75158251	     -1.78725242	     -8.26544162	    -15.22519074	     13.12644185	     -1.16927127	     -6.64698675	     -0.40011122	     -4.32950310
      0.18000000	      1.61051162	      2.01916696	    177.72131342	      0.20617730	      0.94285373	      1.25793978	      1.55299695	      3.25521482	     -9.58601128	     -9.68000495	     10.53037815	     -2.70057198	      3.19014016	     -1.92307937	     -8.12929414	    -15.45445412	     13.20089309	     -1.05904424	     -6.46641601	     -0.28882289	     -4.55585395
      0.19000000	      1.88932536	      2.12058183	    177.85685891	      0.20674057	      0.94233180	      1.25765214	      1.88221439	      3.41300097	     -9.65761741	     -9.68397409	     10.50086433	     -2.78089461	      3.67826148	     -2.09643744	     -7.96731649	    -15.71111635	     13.31237394	     -0.96321425	     -6.26737145	     -0.14532111	     -4.81169831
      0.20000000	      2.13823781	      2.23670444	    177.98916161	      0.20723589	      0.94186346	      1.25732287	      2.15147300	      3.58990376	     -9.73750279	     -9.64257385	     10.41680435	     -2.85195012	      4.11916085	     -2.28248349	     -7.80268161	    -15.95096626	     13.45114755	     -0.88453615	     -6.10201468	      0.01560986	     -5.06910663
      0.21000000	      2.40472269	      2.31272643	    178.06640475	      0.20762541	      0.94137870	      1.25691557	      2.43511846	      3.72415550	     -9.75519969	     -9.60234920	     10.42003680	     -2.93192674	      4.55071348	     -2.42525650	     -7.70451511	    -16.15990375	     13.52122078	     -0.79660170	     -5.90251214	      0.13107990	     -5.26509142
      0.22000000	      2.54306388	      2.38045162	    178.10986832	      0.20774061	      0.94113058	      1.25647105	      2.50733130	      3.85247546	     -9.73599689	     -9.45350701	     10.37266808	     -2.96713236	      4.76307814	     -2.54498486	     -7.63146561	    -16.26302871	     13.57620659	     -0.75806432	     -5.82904631	      0.23844523	     -5.42476821
      0.23000000	      2.71451441	      2.41885156	    178.09734845	      0.20771505	      0.94084874	      1.25598819	      2.64050360	      3.94092526	     -9.73747582	     -9.36566988	     10.31297077	     -3.03059595	      4.96501846	     -2.63320616	     -7.64825459	    -16.30853637	     13.64361838	     -0.68689379	     -5.69835777	      0.32524215	     -5.54153451
      0.24000000	      2.79004678	      2.40310270	    178.04571050	      0.20746473	      0.94073918	      1.25547205	      2.63453402	      3.96707262	     -9.73138608	     -9.23541881	     10.32678243	     -3.03558316	      4.98677089	     -2.65023353	     -7.70259226	    -16.24547981	     13.64767621	     -0.67887035	     -5.65792952	      0.34823320	     -5.61049670
      0.25000000	      2.87815979	      2.39363361	    177.95533686	      0.20716832	      0.94062955	      1.25486927	      2.61334366	      4.01299666	     -9.59752182	     -9.05265950	     10.27470903	     -3.06742703	      5.02063773	     -2.68126806	     -7.79535116	    -16.20027145	     13.64571322	     -0.64556551	     -5.60339765	      0.38033335	     -5.63811054
      0.26000000	      2.94405964	      2.35936593	    177.82447756	      0.20677940	      0.94056205	      1.25420636	      2.58118088	      4.02753963	     -9.47969573	     -8.90269294	     10.24038144	     -3.10009678	      4.99021724	     -2.68539419	     -7.95263509	    -16.09970392	     13.63692450	     -0.61185951	     -5.56752533	      0.38571065	     -5.61622623
      0.27000000	      2.99437110	      2.31323648	    177.67302443	      0.20634661	      0.94052441	      1.25349801	      2.53315455	      4.02939275	     -9.34430526	     -8.75884405	     10.22202293	     -3.12769862	      4.92570043	     -2.67576255	     -8.12945366	    -15.97659968	     13.61162170	     -0.58436509	     -5.55059594	      0.37977210	     -5.57256031
      0.28000000	      3.04066963	      2.26232423	    177.50946384	      0.20588585	      0.94049202	      1.25273296	      2.48210830	      4.02809581	     -9.20253408	     -8.61964410	     10.20330721	     -3.14842076	      4.85263979	     -2.66280614	     -8.31428925	    -15.85219609	     13.58372864	     -0.56473856	     -5.54026596	      0.36523015	     -5.51578735
      0.29000000	      3.09083662	      2.21354795	    177.34291396	      0.20540829	      0.94044757	      1.25192811	      2.43719839	      4.03002241	     -9.06486333	     -8.48608519	     10.18437479	     -3.16131430	      4.78859659	     -2.65437607	     -8.49496371	    -15.73969370	     13.55812734	     -0.55204503	     -5.52969467	      0.35190299	     -5.45628006
